HIERARCHY
ROOT Hips
{
	OFFSET 0.00000 0.00000 0.00000
	CHANNELS 6 Xposition Yposition Zposition Zrotation Yrotation Xrotation 
	JOINT LHipJoint
	{
		OFFSET 0 0 0
		CHANNELS 3 Zrotation Yrotation Xrotation
		JOINT LeftUpLeg
		{
			OFFSET 1.48831 -1.59570 0.95625
			CHANNELS 3 Zrotation Yrotation Xrotation
			JOINT LeftLeg
			{
				OFFSET 2.20856 -6.06797 0.00000
				CHANNELS 3 Zrotation Yrotation Xrotation
				JOINT LeftFoot
				{
					OFFSET 2.62924 -7.22379 0.00000
					CHANNELS 3 Zrotation Yrotation Xrotation
					JOINT LeftToeBase
					{
						OFFSET 0.16802 -0.46163 2.41673
						CHANNELS 3 Zrotation Yrotation Xrotation
						End Site
						{
							OFFSET 0.00000 -0.00000 1.23760
						}
					}
				}
			}
		}
	}
	JOINT RHipJoint
	{
		OFFSET 0 0 0
		CHANNELS 3 Zrotation Yrotation Xrotation
		JOINT RightUpLeg
		{
			OFFSET -1.56796 -1.59570 0.95625
			CHANNELS 3 Zrotation Yrotation Xrotation
			JOINT RightLeg
			{
				OFFSET -2.29239 -6.29829 0.00000
				CHANNELS 3 Zrotation Yrotation Xrotation
				JOINT RightFoot
				{
					OFFSET -2.66963 -7.33475 0.00000
					CHANNELS 3 Zrotation Yrotation Xrotation
					JOINT RightToeBase
					{
						OFFSET -0.18185 -0.49964 2.34359
						CHANNELS 3 Zrotation Yrotation Xrotation
						End Site
						{
							OFFSET -0.00000 -0.00000 1.20477
						}
					}
				}
			}
		}
	}
	JOINT LowerBack
	{
		OFFSET 0 0 0
		CHANNELS 3 Zrotation Yrotation Xrotation
		JOINT Spine
		{
			OFFSET 0.03505 2.15832 -0.34324
			CHANNELS 3 Zrotation Yrotation Xrotation
			JOINT Spine1
			{
				OFFSET -0.01089 2.17963 0.04689
				CHANNELS 3 Zrotation Yrotation Xrotation
				JOINT Neck
				{
					OFFSET 0 0 0
					CHANNELS 3 Zrotation Yrotation Xrotation
					JOINT Neck1
					{
						OFFSET 0.04686 1.69404 0.22159
						CHANNELS 3 Zrotation Yrotation Xrotation
						JOINT Head
						{
							OFFSET 0.00265 1.69305 -0.01513
							CHANNELS 3 Zrotation Yrotation Xrotation
							End Site
							{
								OFFSET -0.00415 1.80215 -0.03034
							}
						}
					}
				}
				JOINT LeftShoulder
				{
					OFFSET 0 0 0
					CHANNELS 3 Zrotation Yrotation Xrotation
					JOINT LeftArm
					{
						OFFSET 3.67184 1.11724 -0.19002
						CHANNELS 3 Zrotation Yrotation Xrotation
						JOINT LeftForeArm
						{
							OFFSET 5.17714 -0.00000 -0.00000
							CHANNELS 3 Zrotation Yrotation Xrotation
							JOINT LeftHand
							{
								OFFSET 3.43679 -0.00000 -0.00000
								CHANNELS 3 Zrotation Yrotation Xrotation
								JOINT LeftFingerBase
								{
									OFFSET 0 0 0
									CHANNELS 3 Zrotation Yrotation Xrotation
									JOINT LeftHandIndex1
									{
										OFFSET 0.57312 -0.00000 -0.00000
										CHANNELS 3 Zrotation Yrotation Xrotation
										End Site
										{
											OFFSET 0.46206 -0.00000 -0.00000
										}
									}
								}
								JOINT LThumb
								{
									OFFSET 0 0 0
									CHANNELS 3 Zrotation Yrotation Xrotation
									End Site
									{
										OFFSET 0.46912 -0.00000 0.46912
									}
								}
							}
						}
					}
				}
				JOINT RightShoulder
				{
					OFFSET 0 0 0
					CHANNELS 3 Zrotation Yrotation Xrotation
					JOINT RightArm
					{
						OFFSET -3.59596 0.95831 -0.26050
						CHANNELS 3 Zrotation Yrotation Xrotation
						JOINT RightForeArm
						{
							OFFSET -5.23908 -0.00000 -0.00000
							CHANNELS 3 Zrotation Yrotation Xrotation
							JOINT RightHand
							{
								OFFSET -3.46485 -0.00000 -0.00000
								CHANNELS 3 Zrotation Yrotation Xrotation
								JOINT RightFingerBase
								{
									OFFSET 0 0 0
									CHANNELS 3 Zrotation Yrotation Xrotation
									JOINT RightHandIndex1
									{
										OFFSET -0.60875 -0.00000 -0.00000
										CHANNELS 3 Zrotation Yrotation Xrotation
										End Site
										{
											OFFSET -0.49079 -0.00000 -0.00000
										}
									}
								}
								JOINT RThumb
								{
									OFFSET 0 0 0
									CHANNELS 3 Zrotation Yrotation Xrotation
									End Site
									{
										OFFSET -0.49829 -0.00000 0.49829
									}
								}
							}
						}
					}
				}
			}
		}
	}
}
MOTION
Frames: 7
Frame Time: 0.0606061
0.00 0.00 0.00 181.2990 38.8132 -166.9390 0.0000 0.0000 0.0000 -13.0893 23.9131 -40.3288 5.9025 14.3332 44.5893 0.7931 11.7431 -24.8653 0.5479 -4.7421 -13.1744 0.0000 0.0000 0.0000 0.4332 33.9808 -42.4251 -6.2217 -14.6398 45.8651 -0.1819 17.9931 -14.2690 -1.6140 8.0110 -22.7474 -0.6296 -5.6764 28.7030 2.2899 -5.7950 8.7527 4.7025 -2.2424 -5.5991 2.0691 -0.8882 13.0273 2.8780 0.2630 -21.3307 0.5727 -0.1803 -8.8293 -0.0000 0.0000 0.0000 -79.3168 6.2942 34.3375 145.1560 -44.7004 -105.2965 -0.0000 0.0000 -6.4345 -1.7465 38.6567 -1.0912 -7.1250 0.0000 -0.0000 -44.6955 62.9482 -21.6543 -0.0000 0.0000 0.0000 76.9374 -0.7758 34.1912 -144.9148 44.8729 -105.1266 0.0000 0.0000 12.1505 14.3583 -18.5488 -4.6554 7.1250 -0.0000 -0.0000 38.3795 -44.8098 0.2133
0.00 0.00 0.00 182.1970 51.0157 -166.3740 0.0000 0.0000 0.0000 -19.4649 32.0594 -42.0991 6.3586 14.7671 46.4046 1.2950 13.1400 -29.8178 0.3528 -3.8160 -10.5597 0.0000 0.0000 0.0000 -3.9665 37.9737 -42.7359 -4.9353 -13.3106 40.5426 1.2939 20.8344 0.3554 -0.0120 0.7063 -1.9411 -0.1917 -6.4858 27.9686 2.8180 -6.8721 8.6119 5.3192 -2.8602 -5.3021 3.3204 -1.8997 13.5564 2.3350 -1.0289 -21.7689 0.3413 -0.8773 -9.0879 0.0000 -0.0000 0.0000 -79.2106 5.9152 36.2202 144.6090 -45.0893 -104.9104 -0.0000 0.0000 -6.4302 -1.7548 38.9045 -1.1023 -7.1250 0.0000 -0.0000 -45.0412 63.1233 -22.0405 0.0000 -0.0000 0.0000 76.6104 -1.3464 32.8299 -145.5460 44.4183 -105.5702 0.0000 0.0000 11.2826 13.8856 -18.4110 -4.4644 7.1250 -0.0000 -0.0000 37.9303 -44.7582 0.2668
0.00 0.00 0.00 187.7920 -17.2717 -171.0490 0.0000 0.0000 0.0000 -5.8097 -4.4585 -55.3786 10.5818 17.7243 61.4158 0.8796 -14.5871 -18.3314 0.4337 -4.2262 -11.7141 0.0000 0.0000 0.0000 9.2053 5.5436 -34.5910 -8.8726 -16.7250 55.6485 -2.0077 -6.8619 -29.9404 -0.7987 5.7041 -15.9283 2.7631 1.6385 31.5476 1.8011 0.9486 9.1446 0.1875 -0.4428 -6.8389 10.1237 8.6041 10.5433 -17.6725 10.3206 -18.4057 -8.1000 5.7055 -5.6588 0.0000 -0.0000 0.0000 -64.5948 -14.5464 42.5558 144.2928 -45.3106 -104.6861 -0.0000 0.0000 -11.6127 -2.3282 39.1818 -1.4714 -7.1250 0.0000 -0.0000 -45.9620 63.1660 -22.6365 0.0000 -0.0000 0.0000 78.6055 0.6620 17.5259 -145.7465 44.2717 -105.7102 0.0000 0.0000 14.3725 14.6964 -19.2885 -4.9516 7.1250 -0.0000 -0.0000 39.0730 -45.3698 -0.4237
0.00 0.00 0.00 187.9160 -39.0825 -172.1350 0.0000 0.0000 0.0000 -0.7151 -15.7217 -55.7124 8.8642 16.7195 55.6191 -1.3175 -23.2538 -4.4414 0.0015 -0.2482 -0.6820 0.0000 0.0000 0.0000 17.6824 -4.6185 -34.5931 -10.0795 -17.4543 59.7536 -3.6215 -11.6816 -41.2777 -0.1983 2.8676 -7.9104 2.2125 2.8901 31.1118 -1.2266 2.6585 8.7197 -3.5244 0.6322 -6.9656 9.4747 9.0458 10.2757 -18.0737 10.6724 -19.7472 -8.2147 6.0128 -5.9852 -0.0000 -0.0000 0.0000 -63.6614 -12.0426 35.5791 145.2440 -44.6371 -105.3584 -0.0000 0.0000 -11.0698 -1.7668 39.1892 -1.1166 -7.1250 0.0000 -0.0000 -45.4466 63.3226 -22.4909 -0.0000 -0.0000 0.0000 79.6340 5.6640 25.1742 -143.9660 45.5365 -104.4532 0.0000 0.0000 15.7115 13.1746 -18.8007 -4.3141 7.1250 -0.0000 -0.0000 37.5884 -45.1723 -0.1874
0.00 0.00 0.00 189.7520 -54.8910 -174.3960 0.0000 0.0000 0.0000 2.6904 -22.1232 -56.3374 7.2421 15.5324 49.7843 -2.0209 -24.2305 10.9564 0.8267 5.8009 16.2079 0.0000 0.0000 0.0000 25.4364 -12.7760 -36.3801 -10.2435 -17.5445 60.2993 -5.1198 -13.3985 -48.3844 -0.0196 0.9047 -2.4865 2.7471 3.1515 30.1261 -1.6046 3.3615 8.7445 -4.4653 1.0998 -6.3636 8.0557 9.3100 10.5315 -17.5719 10.9289 -19.8264 -7.8621 6.2499 -6.1544 0.0000 0.0000 0.0000 -65.8346 -10.4330 34.2552 145.9138 -44.1485 -105.8270 -0.0000 0.0000 -9.9078 -0.0661 38.2620 -0.0409 -7.1250 0.0000 -0.0000 -42.5698 63.1085 -20.5788 0.0000 0.0000 0.0000 78.9925 6.5376 29.1036 -144.0637 45.4693 -104.5229 0.0000 0.0000 15.1223 11.6953 -18.2487 -3.7088 7.1250 -0.0000 -0.0000 36.1002 -44.9065 0.0965
0.00 0.00 0.00 192.5240 -64.4857 -181.6110 0.0000 0.0000 0.0000 8.8305 -25.4780 -50.0555 3.2668 11.1149 32.6683 0.0931 -16.4552 24.1957 1.3291 7.3007 20.6092 0.0000 0.0000 0.0000 35.5073 -16.3191 -40.9262 -10.9728 -17.9218 62.6933 -6.5331 -12.8894 -53.2330 -0.0295 1.1094 -3.0498 2.5106 4.2668 30.9211 -4.0094 4.4661 9.0198 -7.4638 1.6693 -6.1026 6.7713 9.9808 11.3631 -14.7523 12.3117 -18.9357 -6.8035 6.8276 -6.1530 0.0000 -0.0000 0.0000 -68.8463 -7.8988 32.4546 146.4042 -43.7831 -106.1674 -0.0000 0.0000 -9.2711 -0.9035 38.6072 -0.5638 -7.1250 0.0000 -0.0000 -43.8316 63.1374 -21.3409 0.0000 -0.0000 0.0000 79.5727 6.6991 39.6333 -144.7682 44.9769 -105.0231 0.0000 0.0000 14.4684 11.1109 -18.1429 -3.4995 7.1250 -0.0000 -0.0000 35.5730 -44.8927 0.1086
0.00 0.00 0.00 185.3160 -42.0902 -177.5250 0.0000 0.0000 0.0000 11.3812 -14.9936 -42.4567 2.2138 9.2979 26.7317 -0.1803 -9.7048 10.1089 0.0773 -1.7940 -4.9366 0.0000 0.0000 0.0000 32.3279 -5.6859 -45.0371 -13.2823 -18.8817 70.0001 -4.9363 -6.9002 -44.6527 -0.0747 1.7627 -4.8503 3.2189 2.4398 32.7926 -3.7609 1.8938 9.6085 -6.2412 0.2426 -6.0516 7.0719 6.1202 10.5456 -7.5913 8.2815 -15.5017 -4.1794 4.1813 -5.7712 -0.0000 0.0000 0.0000 -74.0124 -4.1819 37.5323 146.7746 -43.5026 -106.4230 -0.0000 0.0000 -9.0031 -0.3589 38.6122 -0.2240 -7.1250 0.0000 -0.0000 -43.3206 63.2869 -21.1922 -0.0000 0.0000 0.0000 80.8995 4.5479 37.8394 -148.4173 42.2120 -107.5404 0.0000 0.0000 16.0773 13.5134 -19.0074 -4.4755 7.1250 -0.0000 -0.0000 37.9754 -45.2977 -0.3281
